<svg xmlns="http://www.w3.org/2000/svg" width="1200" height="630" viewBox="0 0 1200 630">
  <defs>
    <linearGradient id="bg" x1="0" y1="0" x2="1200" y2="630" gradientUnits="userSpaceOnUse">
      <stop offset="0%" stop-color="#0a0a0f"/>
      <stop offset="100%" stop-color="#13131a"/>
    </linearGradient>
    <linearGradient id="brand" x1="0" y1="0" x2="1" y2="0">
      <stop offset="0%" stop-color="#ff2d55"/>
      <stop offset="100%" stop-color="#ff6b35"/>
    </linearGradient>
    <radialGradient id="glow" cx="50%" cy="0%" r="60%">
      <stop offset="0%" stop-color="#ff2d55" stop-opacity="0.3"/>
      <stop offset="100%" stop-color="#ff2d55" stop-opacity="0"/>
    </radialGradient>
  </defs>

  <!-- Background -->
  <rect width="1200" height="630" fill="url(#bg)"/>
  <rect width="1200" height="630" fill="url(#glow)"/>

  <!-- Border -->
  <rect x="1" y="1" width="1198" height="628" rx="0" fill="none" stroke="rgba(255,255,255,0.06)" stroke-width="2"/>

  <!-- TikTok icon badge -->
  <rect x="540" y="80" width="120" height="120" rx="28" fill="url(#brand)"/>
  <path d="M609.59 126.69a4.83 4.83 0 01-3.77-4.25V122h-3.45v13.67a2.89 2.89 0 01-2.88 2.5 2.89 2.89 0 01-2.89-2.89 2.89 2.89 0 012.89-2.89c.28 0 .54.04.79.1V129.01a6.31 6.31 0 00-.79-.05 6.34 6.34 0 00-6.34 6.34 6.34 6.34 0 006.34 6.34 6.34 6.34 0 006.33-6.34V129.02a8.18 8.18 0 004.78 1.54V127.11a4.85 4.85 0 01-1.01-.42z" fill="white"/>

  <!-- Main headline -->
  <text x="600" y="270" text-anchor="middle" font-family="system-ui, -apple-system, sans-serif" font-size="64" font-weight="900" fill="url(#brand)">TikTok Downloader</text>

  <!-- Subheadline -->
  <text x="600" y="340" text-anchor="middle" font-family="system-ui, -apple-system, sans-serif" font-size="30" font-weight="400" fill="rgba(255,255,255,0.7)">No Watermark · HD Quality · Free · Instant</text>

  <!-- Feature pills -->
  <rect x="220" y="390" width="220" height="48" rx="24" fill="rgba(255,45,85,0.12)" stroke="rgba(255,45,85,0.3)" stroke-width="1"/>
  <text x="330" y="420" text-anchor="middle" font-family="system-ui, -apple-system, sans-serif" font-size="18" fill="rgba(255,255,255,0.8)">📥 HD Video</text>

  <rect x="490" y="390" width="220" height="48" rx="24" fill="rgba(255,45,85,0.12)" stroke="rgba(255,45,85,0.3)" stroke-width="1"/>
  <text x="600" y="420" text-anchor="middle" font-family="system-ui, -apple-system, sans-serif" font-size="18" fill="rgba(255,255,255,0.8)">🎵 MP3 Audio</text>

  <rect x="760" y="390" width="220" height="48" rx="24" fill="rgba(255,45,85,0.12)" stroke="rgba(255,45,85,0.3)" stroke-width="1"/>
  <text x="870" y="420" text-anchor="middle" font-family="system-ui, -apple-system, sans-serif" font-size="18" fill="rgba(255,255,255,0.8)">⚡ No Login</text>

  <!-- Domain watermark -->
  <text x="600" y="560" text-anchor="middle" font-family="system-ui, -apple-system, sans-serif" font-size="22" fill="rgba(255,255,255,0.2)">yourdomain.com</text>
</svg>
